<mxfile host="app.diagrams.net" agent="Mozilla/5.0 (Macintosh; Intel Mac OS X 10_15_7) AppleWebKit/537.36 (KHTML, like Gecko) Chrome/131.0.0.0 Safari/537.36" version="25.0.3">
  <diagram id="C5RBs43oDa-KdzZeNtuy" name="Page-1">
    <mxGraphModel dx="1363" dy="740" grid="0" gridSize="10" guides="1" tooltips="1" connect="1" arrows="1" fold="1" page="1" pageScale="1" pageWidth="827" pageHeight="1169" math="0" shadow="0">
      <root>
        <mxCell id="WIyWlLk6GJQsqaUBKTNV-0" />
        <mxCell id="WIyWlLk6GJQsqaUBKTNV-1" parent="WIyWlLk6GJQsqaUBKTNV-0" />
        <mxCell id="Y1IG4KO76qojX3xXu1Hl-0" value="Начало" style="rounded=1;whiteSpace=wrap;html=1;" vertex="1" parent="WIyWlLk6GJQsqaUBKTNV-1">
          <mxGeometry x="160" y="110" width="120" height="30" as="geometry" />
        </mxCell>
        <mxCell id="Y1IG4KO76qojX3xXu1Hl-1" value="event.&lt;span class=&quot;hljs-title function_&quot;&gt;preventDefault&lt;/span&gt;();" style="shape=parallelogram;perimeter=parallelogramPerimeter;whiteSpace=wrap;html=1;fixedSize=1;" vertex="1" parent="WIyWlLk6GJQsqaUBKTNV-1">
          <mxGeometry x="145" y="170" width="150" height="30" as="geometry" />
        </mxCell>
        <mxCell id="Y1IG4KO76qojX3xXu1Hl-2" value="" style="endArrow=classic;html=1;rounded=0;exitX=0.5;exitY=1;exitDx=0;exitDy=0;" edge="1" parent="WIyWlLk6GJQsqaUBKTNV-1" source="Y1IG4KO76qojX3xXu1Hl-0" target="Y1IG4KO76qojX3xXu1Hl-1">
          <mxGeometry width="50" height="50" relative="1" as="geometry">
            <mxPoint x="280" y="290" as="sourcePoint" />
            <mxPoint x="330" y="240" as="targetPoint" />
          </mxGeometry>
        </mxCell>
        <mxCell id="Y1IG4KO76qojX3xXu1Hl-3" value="&amp;nbsp;title&lt;div&gt;&lt;span style=&quot;background-color: initial;&quot;&gt;subject&amp;nbsp;&lt;/span&gt;&lt;div&gt;classValue&amp;nbsp;&lt;/div&gt;&lt;div&gt;&amp;nbsp;fileInput&lt;/div&gt;&lt;div&gt;&amp;nbsp;file&lt;/div&gt;&lt;/div&gt;" style="whiteSpace=wrap;html=1;aspect=fixed;" vertex="1" parent="WIyWlLk6GJQsqaUBKTNV-1">
          <mxGeometry x="180" y="240" width="80" height="80" as="geometry" />
        </mxCell>
        <mxCell id="Y1IG4KO76qojX3xXu1Hl-4" value="" style="endArrow=classic;html=1;rounded=0;exitX=0.5;exitY=1;exitDx=0;exitDy=0;entryX=0.5;entryY=0;entryDx=0;entryDy=0;" edge="1" parent="WIyWlLk6GJQsqaUBKTNV-1" source="Y1IG4KO76qojX3xXu1Hl-1" target="Y1IG4KO76qojX3xXu1Hl-3">
          <mxGeometry width="50" height="50" relative="1" as="geometry">
            <mxPoint x="280" y="290" as="sourcePoint" />
            <mxPoint x="330" y="240" as="targetPoint" />
          </mxGeometry>
        </mxCell>
        <mxCell id="Y1IG4KO76qojX3xXu1Hl-5" value="&lt;span class=&quot;hljs-keyword&quot;&gt;if&lt;/span&gt; (!file)" style="rhombus;whiteSpace=wrap;html=1;" vertex="1" parent="WIyWlLk6GJQsqaUBKTNV-1">
          <mxGeometry x="180" y="360" width="80" height="40" as="geometry" />
        </mxCell>
        <mxCell id="Y1IG4KO76qojX3xXu1Hl-7" value="" style="endArrow=classic;html=1;rounded=0;exitX=0.5;exitY=1;exitDx=0;exitDy=0;entryX=0.5;entryY=0;entryDx=0;entryDy=0;" edge="1" parent="WIyWlLk6GJQsqaUBKTNV-1" source="Y1IG4KO76qojX3xXu1Hl-3" target="Y1IG4KO76qojX3xXu1Hl-5">
          <mxGeometry width="50" height="50" relative="1" as="geometry">
            <mxPoint x="380" y="300" as="sourcePoint" />
            <mxPoint x="430" y="250" as="targetPoint" />
          </mxGeometry>
        </mxCell>
        <mxCell id="Y1IG4KO76qojX3xXu1Hl-8" value="&lt;span class=&quot;hljs-title function_&quot;&gt;alert&lt;/span&gt;(&lt;span class=&quot;hljs-string&quot;&gt;&#39;Пожалуйста, выберите файл для загрузки.&#39;&lt;/span&gt;);" style="shape=parallelogram;perimeter=parallelogramPerimeter;whiteSpace=wrap;html=1;fixedSize=1;" vertex="1" parent="WIyWlLk6GJQsqaUBKTNV-1">
          <mxGeometry x="310" y="420" width="150" height="60" as="geometry" />
        </mxCell>
        <mxCell id="Y1IG4KO76qojX3xXu1Hl-12" value="" style="endArrow=classic;html=1;rounded=0;exitX=1;exitY=0.5;exitDx=0;exitDy=0;entryX=0.5;entryY=0;entryDx=0;entryDy=0;" edge="1" parent="WIyWlLk6GJQsqaUBKTNV-1" source="Y1IG4KO76qojX3xXu1Hl-5" target="Y1IG4KO76qojX3xXu1Hl-8">
          <mxGeometry width="50" height="50" relative="1" as="geometry">
            <mxPoint x="270" y="410" as="sourcePoint" />
            <mxPoint x="320" y="360" as="targetPoint" />
            <Array as="points">
              <mxPoint x="385" y="380" />
            </Array>
          </mxGeometry>
        </mxCell>
        <mxCell id="Y1IG4KO76qojX3xXu1Hl-13" value="нет" style="edgeLabel;html=1;align=center;verticalAlign=middle;resizable=0;points=[];" vertex="1" connectable="0" parent="Y1IG4KO76qojX3xXu1Hl-12">
          <mxGeometry x="-0.1465" y="3" relative="1" as="geometry">
            <mxPoint as="offset" />
          </mxGeometry>
        </mxCell>
        <mxCell id="Y1IG4KO76qojX3xXu1Hl-14" value="&lt;span class=&quot;hljs-keyword&quot;&gt;const&lt;/span&gt; material = {&lt;br/&gt;        &lt;span class=&quot;hljs-attr&quot;&gt;title&lt;/span&gt;: title,&lt;br/&gt;        &lt;span class=&quot;hljs-attr&quot;&gt;subject&lt;/span&gt;: subject,&lt;br/&gt;        &lt;span class=&quot;hljs-attr&quot;&gt;class&lt;/span&gt;: classValue,&lt;br/&gt;        &lt;span class=&quot;hljs-attr&quot;&gt;file&lt;/span&gt;: file&lt;br/&gt;    };" style="whiteSpace=wrap;html=1;aspect=fixed;" vertex="1" parent="WIyWlLk6GJQsqaUBKTNV-1">
          <mxGeometry x="170" y="450" width="100" height="100" as="geometry" />
        </mxCell>
        <mxCell id="Y1IG4KO76qojX3xXu1Hl-15" value="" style="endArrow=classic;html=1;rounded=0;exitX=0.5;exitY=1;exitDx=0;exitDy=0;entryX=0.5;entryY=0;entryDx=0;entryDy=0;" edge="1" parent="WIyWlLk6GJQsqaUBKTNV-1" source="Y1IG4KO76qojX3xXu1Hl-5" target="Y1IG4KO76qojX3xXu1Hl-14">
          <mxGeometry width="50" height="50" relative="1" as="geometry">
            <mxPoint x="270" y="410" as="sourcePoint" />
            <mxPoint x="320" y="360" as="targetPoint" />
          </mxGeometry>
        </mxCell>
        <mxCell id="Y1IG4KO76qojX3xXu1Hl-16" value="да" style="edgeLabel;html=1;align=center;verticalAlign=middle;resizable=0;points=[];" vertex="1" connectable="0" parent="Y1IG4KO76qojX3xXu1Hl-15">
          <mxGeometry x="-0.3133" relative="1" as="geometry">
            <mxPoint as="offset" />
          </mxGeometry>
        </mxCell>
        <mxCell id="Y1IG4KO76qojX3xXu1Hl-19" value="Подтвердить" style="shape=parallelogram;perimeter=parallelogramPerimeter;whiteSpace=wrap;html=1;fixedSize=1;" vertex="1" parent="WIyWlLk6GJQsqaUBKTNV-1">
          <mxGeometry x="160" y="585" width="120" height="20" as="geometry" />
        </mxCell>
        <mxCell id="Y1IG4KO76qojX3xXu1Hl-20" value="" style="endArrow=classic;html=1;rounded=0;entryX=0.5;entryY=0;entryDx=0;entryDy=0;" edge="1" parent="WIyWlLk6GJQsqaUBKTNV-1" target="Y1IG4KO76qojX3xXu1Hl-19">
          <mxGeometry width="50" height="50" relative="1" as="geometry">
            <mxPoint x="220" y="550" as="sourcePoint" />
            <mxPoint x="270" y="500" as="targetPoint" />
          </mxGeometry>
        </mxCell>
        <mxCell id="Y1IG4KO76qojX3xXu1Hl-21" value="Конец" style="rounded=1;whiteSpace=wrap;html=1;" vertex="1" parent="WIyWlLk6GJQsqaUBKTNV-1">
          <mxGeometry x="160" y="640" width="120" height="30" as="geometry" />
        </mxCell>
        <mxCell id="Y1IG4KO76qojX3xXu1Hl-22" value="" style="endArrow=classic;html=1;rounded=0;exitX=0.5;exitY=1;exitDx=0;exitDy=0;entryX=1;entryY=0.5;entryDx=0;entryDy=0;" edge="1" parent="WIyWlLk6GJQsqaUBKTNV-1" source="Y1IG4KO76qojX3xXu1Hl-8" target="Y1IG4KO76qojX3xXu1Hl-21">
          <mxGeometry width="50" height="50" relative="1" as="geometry">
            <mxPoint x="300" y="580" as="sourcePoint" />
            <mxPoint x="350" y="530" as="targetPoint" />
            <Array as="points">
              <mxPoint x="385" y="655" />
            </Array>
          </mxGeometry>
        </mxCell>
        <mxCell id="Y1IG4KO76qojX3xXu1Hl-23" value="" style="endArrow=classic;html=1;rounded=0;exitX=0.5;exitY=1;exitDx=0;exitDy=0;" edge="1" parent="WIyWlLk6GJQsqaUBKTNV-1" source="Y1IG4KO76qojX3xXu1Hl-19" target="Y1IG4KO76qojX3xXu1Hl-21">
          <mxGeometry width="50" height="50" relative="1" as="geometry">
            <mxPoint x="300" y="580" as="sourcePoint" />
            <mxPoint x="350" y="530" as="targetPoint" />
          </mxGeometry>
        </mxCell>
      </root>
    </mxGraphModel>
  </diagram>
</mxfile>
